{"accessors":[{"bufferView":0,"componentType":5125,"count":1584,"max":[1325.0],"min":[0.0],"type":"SCALAR"},{"bufferView":1,"componentType":5126,"count":1326,"max":[40.01955032348633,44.99248123168945,20.99737548828125],"min":[28.208526611328126,33.18145751953125,9.186351776123047],"type":"VEC3"},{"bufferView":2,"componentType":5126,"count":1326,"max":[1.0,1.0,1.0],"min":[-1.0,-1.0,-1.0],"type":"VEC3"},{"bufferView":3,"componentType":5125,"count":6336,"max":[5295.0],"min":[0.0],"type":"SCALAR"},{"bufferView":4,"componentType":5126,"count":5296,"max":[68.22808074951172,78.17394256591797,69.55380249023438],"min":[0.0,0.0,0.0],"type":"VEC3"},{"bufferView":5,"componentType":5126,"count":5296,"max":[1.0,1.0,1.0],"min":[-1.0,-1.0,-1.0],"type":"VEC3"},{"bufferView":6,"componentType":5125,"count":1590,"max":[1313.0],"min":[0.0],"type":"SCALAR"},{"bufferView":7,"componentType":5126,"count":1314,"max":[46.71246337890625,51.63225555419922,67.0072250366211],"min":[21.515613555908204,26.54168701171875,41.916656494140628],"type":"VEC3"},{"bufferView":8,"componentType":5126,"count":1314,"max":[1.0,0.9952765107154846,0.9965952634811401],"min":[-1.0,-0.9952765107154846,-0.9992388486862183],"type":"VEC3"},{"bufferView":9,"componentType":5125,"count":288,"max":[251.0],"min":[0.0],"type":"SCALAR"},{"bufferView":10,"componentType":5126,"count":252,"max":[1.574803113937378,1.574803113937378,39.370079040527347],"min":[0.0,-1.1368683772161603e-13,2.842170943040401e-14],"type":"VEC3"},{"bufferView":11,"componentType":5126,"count":252,"max":[1.0,1.0,0.7071067690849304],"min":[-1.0,-1.0,-2.527675605715901e-13],"type":"VEC3"},{"bufferView":12,"componentType":5125,"count":288,"max":[251.0],"min":[0.0],"type":"SCALAR"},{"bufferView":13,"componentType":5126,"count":252,"max":[1.574803113937378,1.574803113937378,39.370079040527347],"min":[0.0,-1.1368683772161603e-13,2.842170943040401e-14],"type":"VEC3"},{"bufferView":14,"componentType":5126,"count":252,"max":[1.0,1.0,0.7071067690849304],"min":[-1.0,-1.0,-2.527675605715901e-13],"type":"VEC3"},{"bufferView":15,"componentType":5125,"count":288,"max":[251.0],"min":[0.0],"type":"SCALAR"},{"bufferView":16,"componentType":5126,"count":252,"max":[1.574803113937378,1.574803113937378,39.370079040527347],"min":[0.0,-1.1368683772161603e-13,2.842170943040401e-14],"type":"VEC3"},{"bufferView":17,"componentType":5126,"count":252,"max":[1.0,1.0,0.7071067690849304],"min":[-1.0,-1.0,-2.527675605715901e-13],"type":"VEC3"},{"bufferView":18,"componentType":5125,"count":288,"max":[251.0],"min":[0.0],"type":"SCALAR"},{"bufferView":19,"componentType":5126,"count":252,"max":[1.574803113937378,1.574803113937378,39.370079040527347],"min":[0.0,-1.1368683772161603e-13,2.842170943040401e-14],"type":"VEC3"},{"bufferView":20,"componentType":5126,"count":252,"max":[1.0,1.0,0.7071067690849304],"min":[-1.0,-1.0,-2.527675605715901e-13],"type":"VEC3"},{"bufferView":21,"componentType":5125,"count":288,"max":[251.0],"min":[0.0],"type":"SCALAR"},{"bufferView":22,"componentType":5126,"count":252,"max":[1.574803113937378,1.574803113937378,39.370079040527347],"min":[0.0,-1.1368683772161603e-13,2.842170943040401e-14],"type":"VEC3"},{"bufferView":23,"componentType":5126,"count":252,"max":[1.0,1.0,2.527675605715901e-13],"min":[-1.0,-1.0,-0.7071067690849304],"type":"VEC3"}],"asset":{"generator":"SimLab GLTF","version":"2.0"},"bufferViews":[{"buffer":0,"byteLength":6336,"target":34963},{"buffer":0,"byteLength":15912,"byteOffset":6336,"byteStride":12,"target":34962},{"buffer":0,"byteLength":15912,"byteOffset":22248,"byteStride":12,"target":34962},{"buffer":0,"byteLength":25344,"byteOffset":38160,"target":34963},{"buffer":0,"byteLength":63552,"byteOffset":63504,"byteStride":12,"target":34962},{"buffer":0,"byteLength":63552,"byteOffset":127056,"byteStride":12,"target":34962},{"buffer":0,"byteLength":6360,"byteOffset":190608,"target":34963},{"buffer":0,"byteLength":15768,"byteOffset":196968,"byteStride":12,"target":34962},{"buffer":0,"byteLength":15768,"byteOffset":212736,"byteStride":12,"target":34962},{"buffer":0,"byteLength":1152,"byteOffset":228504,"target":34963},{"buffer":0,"byteLength":3024,"byteOffset":229656,"byteStride":12,"target":34962},{"buffer":0,"byteLength":3024,"byteOffset":232680,"byteStride":12,"target":34962},{"buffer":0,"byteLength":1152,"byteOffset":235704,"target":34963},{"buffer":0,"byteLength":3024,"byteOffset":236856,"byteStride":12,"target":34962},{"buffer":0,"byteLength":3024,"byteOffset":239880,"byteStride":12,"target":34962},{"buffer":0,"byteLength":1152,"byteOffset":242904,"target":34963},{"buffer":0,"byteLength":3024,"byteOffset":244056,"byteStride":12,"target":34962},{"buffer":0,"byteLength":3024,"byteOffset":247080,"byteStride":12,"target":34962},{"buffer":0,"byteLength":1152,"byteOffset":250104,"target":34963},{"buffer":0,"byteLength":3024,"byteOffset":251256,"byteStride":12,"target":34962},{"buffer":0,"byteLength":3024,"byteOffset":254280,"byteStride":12,"target":34962},{"buffer":0,"byteLength":1152,"byteOffset":257304,"target":34963},{"buffer":0,"byteLength":3024,"byteOffset":258456,"byteStride":12,"target":34962},{"buffer":0,"byteLength":3024,"byteOffset":261480,"byteStride":12,"target":34962}],"buffers":[{"byteLength":264504,"uri":"methanol.bin"}],"extensionsUsed":["KHR_materials_pbrSpecularGlossiness"],"materials":[{"extensions":{"KHR_materials_pbrSpecularGlossiness":{"diffuseFactor":[1.0,0.0,0.0,1.0],"specularFactor":[0.5,0.0,0.0],"glossinessFactor":0.5}},"name":"[0020_Red]","alphaMode":"MASK","doubleSided":true,"pbrMetallicRoughness":{"baseColorFactor":[1.0,0.0,0.0,1.0],"metallicFactor":0.5,"roughnessFactor":0.5}},{"extensions":{"KHR_materials_pbrSpecularGlossiness":{"diffuseFactor":[0.3921568691730499,0.5843137502670288,0.929411768913269,1.0],"specularFactor":[0.19607843458652497,0.2921568751335144,0.4647058844566345],"glossinessFactor":0.5}},"name":"[0101_CornflowerBlue]","alphaMode":"MASK","doubleSided":true,"pbrMetallicRoughness":{"baseColorFactor":[0.3921568691730499,0.5843137502670288,0.929411768913269,1.0],"metallicFactor":0.5,"roughnessFactor":0.5}},{"extensions":{"KHR_materials_pbrSpecularGlossiness":{"diffuseFactor":[0.0,0.0,1.0,1.0],"specularFactor":[0.0,0.0,0.5],"glossinessFactor":0.5}},"name":"[0103_Blue]","alphaMode":"MASK","doubleSided":true,"pbrMetallicRoughness":{"baseColorFactor":[0.0,0.0,1.0,1.0],"metallicFactor":0.5,"roughnessFactor":0.5}},{"extensions":{"KHR_materials_pbrSpecularGlossiness":{"diffuseFactor":[1.0,0.6470588445663452,0.0,1.0],"specularFactor":[0.5,0.3235294222831726,0.0],"glossinessFactor":0.5}},"name":"[0038_Orange]","alphaMode":"MASK","doubleSided":true,"pbrMetallicRoughness":{"baseColorFactor":[1.0,0.6470588445663452,0.0,1.0],"metallicFactor":0.5,"roughnessFactor":0.5}}],"meshes":[{"primitives":[{"attributes":{"NORMAL":2,"POSITION":1},"indices":0,"material":0,"mode":4}]},{"primitives":[{"attributes":{"NORMAL":5,"POSITION":4},"indices":3,"material":1,"mode":4}]},{"primitives":[{"attributes":{"NORMAL":8,"POSITION":7},"indices":6,"material":2,"mode":4}]},{"primitives":[{"attributes":{"NORMAL":11,"POSITION":10},"indices":9,"material":3,"mode":4}]},{"primitives":[{"attributes":{"NORMAL":14,"POSITION":13},"indices":12,"material":3,"mode":4}]},{"primitives":[{"attributes":{"NORMAL":17,"POSITION":16},"indices":15,"material":3,"mode":4}]},{"primitives":[{"attributes":{"NORMAL":20,"POSITION":19},"indices":18,"material":3,"mode":4}]},{"primitives":[{"attributes":{"NORMAL":23,"POSITION":22},"indices":21,"material":3,"mode":4}]}],"nodes":[{"children":[1],"matrix":[1.0,0.0,0.0,0.0,0.0,4.4896593387466768e-11,-1.0,0.0,0.0,1.0,4.4896593387466768e-11,0.0,0.0,0.0,0.0,1.0]},{"name":"Assembly-2","children":[2],"rotation":[0.0,0.0,0.0,-1.0],"scale":[1.0000088214874268,1.0000088214874268,1.0000088214874268],"translation":[-1.3035707473754883,-1.375586986541748,-0.0427749864757061]},{"name":"Methanol","children":[3],"rotation":[0.0,0.0,0.0,-1.0]},{"name":"Assembly-9","children":[4,5],"rotation":[0.0,0.0,0.0,-1.0],"scale":[0.0010000000474974514,0.0010000000474974514,0.0010000000474974514]},{"name":"Active View","rotation":[-0.373982310295105,0.40080302953720095,0.6115002036094666,-0.5705801248550415],"scale":[1000.0,1000.0,1000.0],"translation":[-2571.635498046875,1488.29736328125,2207.71435546875]},{"name":"Assembly-1","children":[6,16],"rotation":[0.0,0.0,0.0,-1.0],"scale":[25.399999618530275,25.399999618530275,25.399999618530275],"translation":[633.50341796875,405.87347412109377,-179.2091827392578]},{"name":"Assembly-2","children":[7,10,13],"rotation":[0.0,0.0,0.0,-1.0]},{"name":"3DGeom-1","children":[9],"rotation":[0.0,0.0,0.0,-1.0]},{"mesh":0},{"children":[8]},{"name":"3DGeom-2","children":[12],"rotation":[0.0,0.0,0.0,-1.0]},{"mesh":1},{"children":[11]},{"name":"3DGeom-3","children":[15],"rotation":[0.0,0.0,0.0,-1.0]},{"mesh":2},{"children":[14]},{"name":"Assembly-3","children":[17,21,25,29,33],"rotation":[0.0,0.0,0.0,-1.0],"translation":[1.9685039520263672,1.9685039520263672,1.488601803779602]},{"name":"Part-4","children":[18],"rotation":[-0.8164966106414795,-4.807406960546706e-16,0.5,-0.28867512941360476],"translation":[31.5245304107666,38.00193786621094,13.874987602233887]},{"name":"3DGeom-4","children":[20],"rotation":[0.0,0.0,0.0,-1.0]},{"mesh":3},{"children":[19]},{"name":"Part-5","children":[22],"rotation":[5.300423546287256e-16,-8.027854283973934e-16,0.8660253882408142,-0.5],"translation":[31.85732650756836,38.19407653808594,13.603261947631836]},{"name":"3DGeom-5","children":[24],"rotation":[0.0,0.0,0.0,-1.0]},{"mesh":4},{"children":[23]},{"name":"Part-6","children":[26],"rotation":[-0.40824830532073977,-0.7071067690849304,-4.3266659997942397e-16,-0.5773502588272095],"translation":[31.690927505493165,36.13892364501953,13.874987602233887]},{"name":"3DGeom-6","children":[28],"rotation":[0.0,0.0,0.0,-1.0]},{"mesh":5},{"children":[27]},{"name":"Part-7","children":[30],"rotation":[0.40824830532073977,-0.7071067690849304,-0.5,-0.28867512941360476],"translation":[33.22114562988281,37.214534759521487,13.874987602233887]},{"name":"3DGeom-7","children":[32],"rotation":[0.0,0.0,0.0,-1.0]},{"mesh":6},{"children":[31]},{"name":"Part-8","children":[34],"rotation":[0.40824830532073977,-0.7071067690849304,-0.5,-0.28867512941360476],"scale":[-1.0,-1.0,-1.0],"translation":[31.069923400878908,37.022396087646487,52.70161437988281]},{"name":"3DGeom-8","children":[36],"rotation":[0.0,0.0,0.0,-1.0]},{"mesh":7},{"children":[35]}],"scene":0,"scenes":[{"nodes":[0]}]}