{
  "accessors": [
    {
      "bufferView": 2,
      "componentType": 5126,
      "count": 3929,
      "max": [
        0.2725383937358856,
        1.2944244146347046,
        0.18120847642421722
      ],
      "min": [
        -0.25900644063949585,
        0.08861982822418213,
        -0.1758885234594345
      ],
      "type": "VEC3"
    },
    {
      "bufferView": 2,
      "byteOffset": 47148,
      "componentType": 5126,
      "count": 3929,
      "max": [
        0.9995859861373901,
        0.9998314380645752,
        0.9999306201934814
      ],
      "min": [
        -0.9995859861373901,
        -1.0,
        -1.0
      ],
      "type": "VEC3"
    },
    {
      "bufferView": 1,
      "componentType": 5126,
      "count": 3929,
      "max": [
        0.9982072710990906,
        0.9996820688247681
      ],
      "min": [
        0.0003179015184286982,
        0.0003179015184286982
      ],
      "type": "VEC2"
    },
    {
      "bufferView": 0,
      "componentType": 5125,
      "count": 19278,
      "type": "SCALAR"
    },
    {
      "bufferView": 2,
      "byteOffset": 94296,
      "componentType": 5126,
      "count": 1052,
      "max": [
        -0.12040135264396667,
        1.5073449611663818,
        0.2632432281970978
      ],
      "min": [
        -0.34674176573753357,
        0.6488625407218933,
        0.03690283000469208
      ],
      "type": "VEC3"
    },
    {
      "bufferView": 2,
      "byteOffset": 106920,
      "componentType": 5126,
      "count": 1052,
      "max": [
        0.9993292093276978,
        1.0,
        0.9999898672103882
      ],
      "min": [
        -0.9993292093276978,
        -0.9996004104614258,
        -0.9993292093276978
      ],
      "type": "VEC3"
    },
    {
      "bufferView": 1,
      "byteOffset": 31432,
      "componentType": 5126,
      "count": 1052,
      "max": [
        0.9658503532409668,
        0.9819334149360657
      ],
      "min": [
        0.031269755214452744,
        0.011219199746847153
      ],
      "type": "VEC2"
    },
    {
      "bufferView": 0,
      "byteOffset": 77112,
      "componentType": 5125,
      "count": 5364,
      "type": "SCALAR"
    },
    {
      "bufferView": 2,
      "byteOffset": 119544,
      "componentType": 5126,
      "count": 3923,
      "max": [
        0.6597713828086853,
        1.2938135862350464,
        0.31530117988586426
      ],
      "min": [
        0.22935481369495392,
        0.08800899982452393,
        -0.02595636248588562
      ],
      "type": "VEC3"
    },
    {
      "bufferView": 2,
      "byteOffset": 166620,
      "componentType": 5126,
      "count": 3923,
      "max": [
        0.9996355772018433,
        1.0,
        0.9986894726753235
      ],
      "min": [
        -0.9981011152267456,
        -0.9998311996459961,
        -0.9999309778213501
      ],
      "type": "VEC3"
    },
    {
      "bufferView": 1,
      "byteOffset": 39848,
      "componentType": 5126,
      "count": 3923,
      "max": [
        0.9982072710990906,
        0.9996820688247681
      ],
      "min": [
        0.0003179015184286982,
        0.0003179015184286982
      ],
      "type": "VEC2"
    },
    {
      "bufferView": 0,
      "byteOffset": 98568,
      "componentType": 5125,
      "count": 19278,
      "type": "SCALAR"
    },
    {
      "bufferView": 2,
      "byteOffset": 213696,
      "componentType": 5126,
      "count": 738,
      "max": [
        0.598142147064209,
        0.7850902080535889,
        0.2619534134864807
      ],
      "min": [
        0.4674445390701294,
        0.5997191667556763,
        0.2052588164806366
      ],
      "type": "VEC3"
    },
    {
      "bufferView": 2,
      "byteOffset": 222552,
      "componentType": 5126,
      "count": 738,
      "max": [
        0.9958701729774475,
        0.9961282014846802,
        0.9999841451644897
      ],
      "min": [
        -0.9949051141738892,
        -0.9973213076591492,
        -0.9996509552001953
      ],
      "type": "VEC3"
    },
    {
      "bufferView": 1,
      "byteOffset": 71232,
      "componentType": 5126,
      "count": 738,
      "max": [
        0.9567057490348816,
        0.9996963143348694
      ],
      "min": [
        0.00030371619504876435,
        0.00030371619504876435
      ],
      "type": "VEC2"
    },
    {
      "bufferView": 0,
      "byteOffset": 175680,
      "componentType": 5125,
      "count": 3288,
      "type": "SCALAR"
    }
  ],
  "asset": {
    "extras": {
      "author": "Sector347 (https://sketchfab.com/sector347)",
      "license": "CC-BY-NC-4.0 (http://creativecommons.org/licenses/by-nc/4.0/)",
      "source": "https://sketchfab.com/3d-models/twin-bunnies-cd00ee953d5a4c27bb68732dc185d395",
      "title": "Twin bunnies"
    },
    "generator": "Sketchfab-12.68.0",
    "version": "2.0"
  },
  "bufferViews": [
    {
      "buffer": 0,
      "byteLength": 188832,
      "name": "floatBufferViews",
      "target": 34963
    },
    {
      "buffer": 0,
      "byteLength": 77136,
      "byteOffset": 188832,
      "byteStride": 8,
      "name": "floatBufferViews",
      "target": 34962
    },
    {
      "buffer": 0,
      "byteLength": 231408,
      "byteOffset": 265968,
      "byteStride": 12,
      "name": "floatBufferViews",
      "target": 34962
    }
  ],
  "buffers": [
    {
      "byteLength": 497376,
      "uri": "scene.bin"
    }
  ],
  "extensionsUsed": [
    "KHR_materials_unlit"
  ],
  "images": [
    {
      "uri": "textures/material_baseColor.png"
    },
    {
      "uri": "textures/Balloon_baseColor.png"
    },
    {
      "uri": "textures/Bun2_baseColor.png"
    },
    {
      "uri": "textures/Bun2_emissive.png"
    },
    {
      "uri": "textures/Doll_baseColor.png"
    }
  ],
  "materials": [
    {
      "doubleSided": true,
      "extensions": {
        "KHR_materials_unlit": {}
      },
      "name": "material",
      "pbrMetallicRoughness": {
        "baseColorTexture": {
          "index": 0
        },
        "metallicFactor": 0.0
      }
    },
    {
      "doubleSided": true,
      "extensions": {
        "KHR_materials_unlit": {}
      },
      "name": "Balloon",
      "pbrMetallicRoughness": {
        "baseColorTexture": {
          "index": 1
        },
        "metallicFactor": 0.0
      }
    },
    {
      "doubleSided": true,
      "emissiveFactor": [
        0.35,
        0.35,
        0.35
      ],
      "emissiveTexture": {
        "index": 3
      },
      "extensions": {
        "KHR_materials_unlit": {}
      },
      "name": "Bun2",
      "pbrMetallicRoughness": {
        "baseColorTexture": {
          "index": 2
        },
        "metallicFactor": 0.0
      }
    },
    {
      "doubleSided": true,
      "extensions": {
        "KHR_materials_unlit": {}
      },
      "name": "Doll",
      "pbrMetallicRoughness": {
        "baseColorTexture": {
          "index": 4
        },
        "metallicFactor": 0.0
      }
    }
  ],
  "meshes": [
    {
      "name": "Object_0",
      "primitives": [
        {
          "attributes": {
            "NORMAL": 1,
            "POSITION": 0,
            "TEXCOORD_0": 2
          },
          "indices": 3,
          "material": 0,
          "mode": 4
        }
      ]
    },
    {
      "name": "Object_1",
      "primitives": [
        {
          "attributes": {
            "NORMAL": 5,
            "POSITION": 4,
            "TEXCOORD_0": 6
          },
          "indices": 7,
          "material": 1,
          "mode": 4
        }
      ]
    },
    {
      "name": "Object_2",
      "primitives": [
        {
          "attributes": {
            "NORMAL": 9,
            "POSITION": 8,
            "TEXCOORD_0": 10
          },
          "indices": 11,
          "material": 2,
          "mode": 4
        }
      ]
    },
    {
      "name": "Object_3",
      "primitives": [
        {
          "attributes": {
            "NORMAL": 13,
            "POSITION": 12,
            "TEXCOORD_0": 14
          },
          "indices": 15,
          "material": 3,
          "mode": 4
        }
      ]
    }
  ],
  "nodes": [
    {
      "children": [
        1
      ],
      "matrix": [
        1.0,
        0.0,
        0.0,
        0.0,
        0.0,
        2.220446049250313e-16,
        -1.0,
        0.0,
        0.0,
        1.0,
        2.220446049250313e-16,
        0.0,
        0.004657696932554245,
        -3.4484607594276845e-18,
        0.015530486591160297,
        1.0
      ],
      "name": "Sketchfab_model"
    },
    {
      "children": [
        2
      ],
      "name": "root"
    },
    {
      "children": [
        3
      ],
      "matrix": [
        1.0,
        0.0,
        0.0,
        0.0,
        0.0,
        2.220446049250313e-16,
        1.0,
        0.0,
        0.0,
        -1.0,
        2.220446049250313e-16,
        0.0,
        0.0,
        0.0,
        0.0,
        1.0
      ],
      "name": "GLTF_SceneRootNode"
    },
    {
      "children": [
        4,
        5,
        6,
        7
      ],
      "matrix": [
        0.9770984106203126,
        0.0,
        -0.21278791310424353,
        0.0,
        0.0,
        1.0,
        0.0,
        0.0,
        0.21278791310424353,
        0.0,
        0.9770984106203126,
        0.0,
        0.0025820177979767323,
        -0.0004828125238418579,
        0.006633109878748655,
        1.0
      ],
      "name": "Bun1_0"
    },
    {
      "mesh": 0,
      "name": "Object_4"
    },
    {
      "mesh": 1,
      "name": "Object_5"
    },
    {
      "mesh": 2,
      "name": "Object_6"
    },
    {
      "mesh": 3,
      "name": "Object_7"
    }
  ],
  "samplers": [
    {
      "magFilter": 9729,
      "minFilter": 9987,
      "wrapS": 10497,
      "wrapT": 10497
    }
  ],
  "scene": 0,
  "scenes": [
    {
      "name": "Sketchfab_Scene",
      "nodes": [
        0
      ]
    }
  ],
  "textures": [
    {
      "sampler": 0,
      "source": 0
    },
    {
      "sampler": 0,
      "source": 1
    },
    {
      "sampler": 0,
      "source": 2
    },
    {
      "sampler": 0,
      "source": 3
    },
    {
      "sampler": 0,
      "source": 4
    }
  ]
}
